<?xml version="1.0" encoding="UTF-8"?>
<svg width="675px" height="233px" viewBox="0 0 675 233" version="1.1" xmlns="http://www.w3.org/2000/svg" xmlns:xlink="http://www.w3.org/1999/xlink">
    <!-- Generator: Sketch 46.2 (44496) - http://www.bohemiancoding.com/sketch -->
    <title>ins-workforces-for-the-future-logo</title>
    <desc>Created with Sketch.</desc>
    <defs>
        <linearGradient x1="100%" y1="100.053144%" x2="0%" y2="0%" id="linearGradient-1">
            <stop stop-color="#006FBA" offset="0%"></stop>
            <stop stop-color="#590056" offset="51%"></stop>
            <stop stop-color="#BE0071" offset="100%"></stop>
        </linearGradient>
    </defs>
    <g id="Page-1" stroke="none" stroke-width="1" fill="none" fill-rule="evenodd">
        <g id="ins-workforces-for-the-future-logo" fill-rule="nonzero">
            <path d="M179.06,175.93 C174.709795,175.919454 170.605863,173.909891 167.93,170.48 L110.54,94.87 L110.54,161.77 C110.515147,169.631773 104.121773,175.984853 96.26,175.96 C88.3982266,175.935147 82.0451472,169.541773 82.07,161.68 C82.07,161.55 82.13,52.68 82.13,52.68 C82.0991117,48.3322611 84.07717,44.2137667 87.49,41.52 C93.708406,36.821227 102.524207,37.8526757 107.49,43.86 L164.87,119.39 L164.87,52.59 C165.074497,44.8751461 171.387436,38.7273261 179.105,38.7273261 C186.822564,38.7273261 193.135503,44.8751461 193.34,52.59 L193.34,161.69 C193.334699,165.471988 191.827225,169.09697 189.149205,171.767489 C186.471184,174.438008 182.841988,175.935308 179.06,175.93 Z M105.34,79.4 L172,167.29 C174.391852,170.249895 178.386838,171.385517 181.978003,170.126364 C185.569169,168.867212 187.980252,165.485462 188,161.68 L188,52.55 C188,47.5794373 183.970563,43.55 179,43.55 C174.029437,43.55 170,47.5794373 170,52.55 L170,134.84 L165.32,128.68 C165.32,128.68 104,47.88 103.34,47 C100.187526,43.2139186 94.6207479,42.563142 90.68,45.52 C88.5298694,47.2389029 87.2846259,49.8472827 87.3,52.6 L87.25,161.6 C87.23067,166.570563 91.2444373,170.61567 96.215,170.635 C101.185563,170.65433 105.23067,166.640563 105.25,161.67 L105.34,79.4 Z M257.47,176.4 C240.75,176.4 224.23,171.33 214.35,163.18 C207.5,157.58 207.45,148.18 211.35,142.31 C218.22,135.31 224.55,135.2 230.99,140.5 C237.24,144.74 249.67,149.19 260.99,149.19 L260.99,149.19 C269.63,149.19 280.19,146.63 281.48,134.41 C280.68,125.86 268.56,122.46 254.54,118.53 C233.47,112.63 207.26,105.29 210.74,73.44 C213.58,49.5 237.32,38.79 259.59,38.79 C273.38,38.79 286.5,42.79 295.59,49.79 C300.8,54.01 302.71,59.79 300.77,65.27 C299.520697,69.182629 296.438671,72.2381313 292.51539,73.4535712 C288.59211,74.669011 284.322475,73.8910675 281.08,71.37 C275.08,67.54 265.29,64.91 256.98,64.91 C250.9,64.91 240.39,66.35 238.43,76.01 C236.78,86.01 247.35,89.5 264.73,94.31 C285.13,99.96 310.51,106.99 309.73,135.31 C309,165.69 281.08,176.45 257.46,176.45 L257.47,176.4 Z M222,142.11 C219.88,142.11 217.7,143.27 215.32,145.65 C212.653639,150.118346 213.628536,155.861764 217.62,159.2 C226.62,166.63 241.86,171.2 257.43,171.2 C279.73,171.2 303.82,161.74 304.55,135.2 C305.19,110.97 283.92,105.08 263.34,99.39 C246.6,94.76 230.8,90.39 233.34,75.13 C235.34,65.32 243.94,59.75 257.01,59.75 C266.38,59.75 277.01,62.64 284.01,67.12 C285.925175,68.6881544 288.494149,69.2026877 290.865532,68.493077 C293.236915,67.7834663 295.100998,65.9423883 295.84,63.58 C297.04,60.21 295.76,56.69 292.35,53.93 C284.2,47.68 272.22,44.06 259.56,44.06 C239.56,44.06 218.34,53.34 215.89,74.06 C212.89,101.49 234.77,107.62 255.89,113.55 C271.12,117.82 285.5,121.84 286.61,134.49 C285.36,147.37 276,154.46 261,154.46 L261,154.46 C249.89,154.46 236.27,150.46 227.87,144.72 C225.66,142.92 223.82,142.11 222,142.11 Z M74.77,22.32 C74.9277553,14.6199807 70.9069039,7.43729732 64.2604873,3.54623955 C57.6140707,-0.344818226 49.3825403,-0.335131794 42.7452997,3.57155749 C36.1080591,7.47824678 32.1041232,14.6703733 32.28,22.37 L32.28,38.37 L0.11,38.37 L0.11,43.58 L32.29,43.58 L32.29,161.69 C32.29,169.554535 38.6654652,175.93 46.53,175.93 C54.3945348,175.93 60.77,169.554535 60.77,161.69 L60.77,47.59 C59.0687472,48.0732047 57.3233656,48.3847603 55.56,48.52 L55.56,161.69 C55.56,166.67437 51.5193699,170.715 46.535,170.715 C41.5506301,170.715 37.51,166.67437 37.51,161.69 L37.51,43.56 L53.51,43.56 C65.2414866,43.5544962 74.7534548,34.0514762 74.77,22.32 L74.77,22.32 Z M53.53,38.32 L37.53,38.32 L37.53,22.32 C37.53,13.483444 44.693444,6.32 53.53,6.32 C62.366556,6.32 69.53,13.483444 69.53,22.32 C69.53,31.156556 62.366556,38.32 53.53,38.32 Z M53.53,46.96 L53.53,46.96 L53.53,46.91 L53.53,46.96 Z" id="Mask" fill="url(#linearGradient-1)"></path>
            <path d="M67.75,203.85 L60.05,231.85 C60.0499999,232.457513 59.5575132,232.95 58.95,232.95 C58.3424868,232.95 57.8500001,232.457513 57.85,231.85 L50.46,207.47 L43.1,231.85 C43.0454822,232.425029 42.5626076,232.864288 41.985,232.864288 C41.4073924,232.864288 40.9245178,232.425029 40.87,231.85 L33.17,203.85 C33.1504186,203.734155 33.1504186,203.615845 33.17,203.5 C33.1917485,202.863203 33.7230542,202.36315 34.36,202.38 C34.8757772,202.372087 35.3264817,202.726808 35.44,203.23 L42.1,227.41 L49.42,203.18 C49.42,202.572487 49.9124868,202.08 50.52,202.08 C51.1275132,202.08 51.62,202.572487 51.62,203.18 L58.94,227.41 L65.56,203.23 C65.7092856,202.673399 66.2445416,202.310782 66.8168163,202.378551 C67.389091,202.44632 67.824847,202.923926 67.84,203.5 C67.8300612,203.620926 67.7996273,203.73928 67.75,203.85 Z" id="Shape" fill="#434345"></path>
            <path d="M94.78,222.88 C94.78,228.36971 90.3297104,232.82 84.84,232.82 C79.3502896,232.82 74.9,228.36971 74.9,222.88 L74.9,211.93 C74.9,206.44029 79.3502896,201.99 84.84,201.99 C90.3297104,201.99 94.78,206.44029 94.78,211.93 L94.78,222.88 Z M92.47,211.94 C92.47,207.726067 89.0539326,204.31 84.84,204.31 C80.6260674,204.31 77.21,207.726067 77.21,211.94 L77.21,222.88 C77.21,227.093933 80.6260674,230.51 84.84,230.51 C89.0539326,230.51 92.47,227.093933 92.47,222.88 L92.47,211.94 Z" id="Shape" fill="#434345"></path>
            <path d="M120.65,232.43 C120.262678,232.44038 119.904218,232.226084 119.73,231.88 L113.1,221.48 C112.806974,221.499 112.513026,221.499 112.22,221.48 L106.51,221.48 L106.51,231.23 C106.51,231.867889 105.992889,232.385 105.355,232.385 C104.717111,232.385 104.2,231.867889 104.2,231.23 L104.2,203.54 C104.220999,202.909914 104.729755,202.405544 105.36,202.39 L112.22,202.39 C116.86238,202.390015 120.83668,205.718569 121.651319,210.288914 C122.465958,214.859259 119.886471,219.35599 115.53,220.96 L121.65,230.66 C121.793722,230.846758 121.874276,231.074412 121.88,231.31 C121.827545,231.948317 121.290426,232.437401 120.65,232.43 L120.65,232.43 Z M112.22,204.7 L106.51,204.7 L106.51,219.22 L112.22,219.22 C114.813748,219.22 117.210471,217.836252 118.507345,215.59 C119.804219,213.343748 119.804219,210.576252 118.507345,208.33 C117.210471,206.083748 114.813748,204.7 112.22,204.7 Z" id="Shape" fill="#434345"></path>
            <path d="M150.07,232.43 C149.715857,232.431863 149.383302,232.259981 149.18,231.97 L138.4,217.45 L133.24,223.38 L133.24,231.28 C133.184447,231.876386 132.683968,232.332413 132.085,232.332413 C131.486032,232.332413 130.985553,231.876386 130.93,231.28 L130.93,203.54 C130.985553,202.943614 131.486032,202.487587 132.085,202.487587 C132.683968,202.487587 133.184447,202.943614 133.24,203.54 L133.24,219.83 L148,202.77 C148.320913,202.391521 148.844323,202.254249 149.309678,202.42652 C149.775032,202.598791 150.08289,203.043791 150.08,203.54 C150.058779,203.822548 149.950473,204.091566 149.77,204.31 L139.91,215.64 L151,230.58 C151.17076,230.77357 151.266543,231.021898 151.27,231.28 C151.228674,231.916486 150.707668,232.415783 150.07,232.43 Z" id="Shape" fill="#434345"></path>
            <path d="M175.17,204.7 L161.88,204.7 L161.88,215.56 L174,215.56 C174.635127,215.56 175.15,216.074873 175.15,216.71 C175.15,217.345127 174.635127,217.86 174,217.86 L161.88,217.86 L161.88,231.27 C161.88,231.907889 161.362889,232.425 160.725,232.425 C160.087111,232.425 159.57,231.907889 159.57,231.27 L159.57,203.54 C159.590999,202.909914 160.099755,202.405544 160.73,202.39 L175.17,202.39 C175.81065,202.39 176.33,202.90935 176.33,203.55 C176.33,204.19065 175.81065,204.71 175.17,204.71 L175.17,204.7 Z" id="Shape" fill="#434345"></path>
            <path d="M204.08,222.88 C203.909791,228.244283 199.511982,232.504762 194.145,232.504762 C188.778018,232.504762 184.380209,228.244283 184.21,222.88 L184.21,211.93 C184.380209,206.565717 188.778018,202.305238 194.145,202.305238 C199.511982,202.305238 203.909791,206.565717 204.08,211.93 L204.08,222.88 Z M201.77,211.94 C201.77,207.726067 198.353933,204.31 194.14,204.31 C189.926067,204.31 186.51,207.726067 186.51,211.94 L186.51,222.88 C186.51,227.093933 189.926067,230.51 194.14,230.51 C198.353933,230.51 201.77,227.093933 201.77,222.88 L201.77,211.94 Z" id="Shape" fill="#434345"></path>
            <path d="M230,232.43 C229.612221,232.432467 229.254652,232.221001 229.07,231.88 L222.44,221.48 C222.143652,221.499435 221.846348,221.499435 221.55,221.48 L215.85,221.48 L215.85,231.23 C215.794447,231.826386 215.293968,232.282413 214.695,232.282413 C214.096032,232.282413 213.595553,231.826386 213.54,231.23 L213.54,203.54 C213.560999,202.909914 214.069755,202.405544 214.7,202.39 L221.55,202.39 C226.19238,202.390015 230.16668,205.718569 230.981319,210.288914 C231.795958,214.859259 229.216471,219.35599 224.86,220.96 L230.99,230.66 C231.130217,230.848645 231.210365,231.075149 231.22,231.31 C231.16324,231.9422 230.634737,232.427382 230,232.43 Z M221.56,204.7 L215.86,204.7 L215.86,219.22 L221.56,219.22 C224.153748,219.22 226.550471,217.836252 227.847345,215.59 C229.144219,213.343748 229.144219,210.576252 227.847345,208.33 C226.550471,206.083748 224.153748,204.7 221.56,204.7 Z" id="Shape" fill="#434345"></path>
            <path d="M257.91,229.15 C257.91,229.15 257.72,229.38 257.33,229.77 C255.157893,231.738023 252.320796,232.809974 249.39,232.77 C243.917786,232.7373 239.488208,228.312178 239.45,222.84 L239.45,211.93 C239.488208,206.457822 243.917786,202.0327 249.39,202 C252.28,202 256.06,203.28 257.91,205.65 C258.075549,205.862152 258.170025,206.121084 258.18,206.39 C258.164424,207.042324 257.642171,207.568966 256.99,207.59 C256.650038,207.579072 256.335088,207.408629 256.14,207.13 L255.75,206.74 C254.018205,205.147373 251.742561,204.277906 249.39,204.31 C245.186151,204.320991 241.780991,207.726151 241.77,211.93 L241.77,222.87 C241.780991,227.073849 245.186151,230.479009 249.39,230.49 C251.929049,230.513002 254.367333,229.497953 256.14,227.68 C256.334743,227.406047 256.654087,227.248253 256.99,227.26 C257.648921,227.252258 258.202517,227.753546 258.26,228.41 C258.254262,228.695307 258.126907,228.964571 257.91,229.15 Z" id="Shape" fill="#434345"></path>
            <path d="M282.9,232.43 L268.45,232.43 C267.823657,232.409278 267.320722,231.906343 267.3,231.28 L267.3,203.54 C267.315785,202.911527 267.821527,202.405785 268.45,202.39 L282.9,202.39 C283.54065,202.39 284.06,202.90935 284.06,203.55 C284.06,204.19065 283.54065,204.71 282.9,204.71 L269.61,204.71 L269.61,215.57 L281.74,215.57 C282.375127,215.57 282.89,216.084873 282.89,216.72 C282.89,217.355127 282.375127,217.87 281.74,217.87 L269.61,217.87 L269.61,230.12 L282.9,230.12 C283.54065,230.12 284.06,230.63935 284.06,231.28 C284.06,231.92065 283.54065,232.44 282.9,232.44 L282.9,232.43 Z" id="Shape" fill="#434345"></path>
            <path d="M300.61,232.81 C297.88,232.81 294.22,231.62 292.61,229.19 C292.472629,228.996091 292.392894,228.767287 292.38,228.53 C292.40682,227.886862 292.936303,227.379441 293.58,227.38 C293.95192,227.388198 294.295978,227.578926 294.5,227.89 C294.5,227.89 294.62,228.04 294.81,228.24 C296.377001,229.7564 298.490383,230.575065 300.67,230.51 C305.21,230.51 308.18,228.01 308.18,224.7 C308.18,216.26 292.58,219.42 292.58,209.6 C292.58,204.75 296.74,202.01 301.05,202.01 C304.300605,202.076336 307.357699,203.568315 309.41,206.09 C309.582328,206.282615 309.678348,206.531553 309.68,206.79 C309.651104,207.271767 309.331735,207.687375 308.87365,207.839336 C308.415564,207.991297 307.911113,207.848976 307.6,207.48 C307.6,207.48 307.45,207.29 307.18,207.03 C305.58756,205.335671 303.375005,204.361137 301.05,204.33 C297.58,204.33 294.88,206.45 294.88,209.61 C294.88,217.12 310.48,214.2 310.48,224.71 C310.43,229.77 305.85,232.81 300.61,232.81 Z" id="Shape" fill="#434345"></path>
            <path d="M348.74,204.7 L335.45,204.7 L335.45,215.56 L347.58,215.56 C348.215127,215.56 348.73,216.074873 348.73,216.71 C348.73,217.345127 348.215127,217.86 347.58,217.86 L335.45,217.86 L335.45,231.27 C335.45,231.907889 334.932889,232.425 334.295,232.425 C333.657111,232.425 333.14,231.907889 333.14,231.27 L333.14,203.54 C333.155992,202.90774 333.667625,202.400517 334.3,202.39 L348.74,202.39 C349.38065,202.39 349.9,202.90935 349.9,203.55 C349.9,204.19065 349.38065,204.71 348.74,204.71 L348.74,204.7 Z" id="Shape" fill="#434345"></path>
            <path d="M377.66,222.88 C377.489791,228.244283 373.091982,232.504762 367.725,232.504762 C362.358018,232.504762 357.960209,228.244283 357.79,222.88 L357.79,211.93 C357.960209,206.565717 362.358018,202.305238 367.725,202.305238 C373.091982,202.305238 377.489791,206.565717 377.66,211.93 L377.66,222.88 Z M375.35,211.94 C375.35,207.726067 371.933933,204.31 367.72,204.31 C363.506067,204.31 360.09,207.726067 360.09,211.94 L360.09,222.88 C360.09,227.093933 363.506067,230.51 367.72,230.51 C371.933933,230.51 375.35,227.093933 375.35,222.88 L375.35,211.94 Z" id="Shape" fill="#434345"></path>
            <path d="M403.53,232.43 C403.139113,232.444329 402.775755,232.22944 402.6,231.88 L396,221.48 C395.706979,221.499141 395.413021,221.499141 395.12,221.48 L389.42,221.48 L389.42,231.23 C389.42,231.867889 388.902889,232.385 388.265,232.385 C387.627111,232.385 387.11,231.867889 387.11,231.23 L387.11,203.54 C387.125785,202.911527 387.631527,202.405785 388.26,202.39 L395.12,202.39 C399.76238,202.390015 403.73668,205.718569 404.551319,210.288914 C405.365958,214.859259 402.786471,219.35599 398.43,220.96 L404.56,230.66 C404.70311,230.84709 404.783592,231.074538 404.79,231.31 C404.736958,231.960145 404.18188,232.453547 403.53,232.43 L403.53,232.43 Z M395.1,204.7 L389.4,204.7 L389.4,219.22 L395.1,219.22 C397.693748,219.22 400.090471,217.836252 401.387345,215.59 C402.684219,213.343748 402.684219,210.576252 401.387345,208.33 C400.090471,206.083748 397.693748,204.7 395.1,204.7 Z" id="Shape" fill="#434345"></path>
            <path d="M444,204.7 L435.91,204.7 L435.91,231.28 C435.854447,231.876386 435.353968,232.332413 434.755,232.332413 C434.156032,232.332413 433.655553,231.876386 433.6,231.28 L433.6,204.7 L425.52,204.7 C424.87935,204.7 424.36,204.18065 424.36,203.54 C424.36,202.89935 424.87935,202.38 425.52,202.38 L444,202.38 C444.64065,202.38 445.16,202.89935 445.16,203.54 C445.16,204.18065 444.64065,204.7 444,204.7 Z" id="Shape" fill="#434345"></path>
            <path d="M471.8,231.27 C471.744447,231.866386 471.243968,232.322413 470.645,232.322413 C470.046032,232.322413 469.545553,231.866386 469.49,231.27 L469.49,217.4 L455,217.4 L455,231.28 C455,231.917889 454.482889,232.435 453.845,232.435 C453.207111,232.435 452.69,231.917889 452.69,231.28 L452.69,203.54 C452.69,202.902111 453.207111,202.385 453.845,202.385 C454.482889,202.385 455,202.902111 455,203.54 L455,215.1 L469.48,215.1 L469.48,203.54 C469.535553,202.943614 470.036032,202.487587 470.635,202.487587 C471.233968,202.487587 471.734447,202.943614 471.79,203.54 L471.8,231.27 Z" id="Shape" fill="#434345"></path>
            <path d="M497.59,232.43 L483.14,232.43 C482.513657,232.409278 482.010722,231.906343 481.99,231.28 L481.99,203.54 C482.010722,202.913657 482.513657,202.410722 483.14,202.39 L497.59,202.39 C498.23065,202.39 498.75,202.90935 498.75,203.55 C498.75,204.19065 498.23065,204.71 497.59,204.71 L484.3,204.71 L484.3,215.57 L496.44,215.57 C497.075127,215.57 497.59,216.084873 497.59,216.72 C497.59,217.355127 497.075127,217.87 496.44,217.87 L484.3,217.87 L484.3,230.12 L497.59,230.12 C498.23065,230.12 498.75,230.63935 498.75,231.28 C498.75,231.92065 498.23065,232.44 497.59,232.44 L497.59,232.43 Z" id="Shape" fill="#434345"></path>
            <path d="M536.67,204.7 L523.38,204.7 L523.38,215.56 L535.51,215.56 C536.145127,215.56 536.66,216.074873 536.66,216.71 C536.66,217.345127 536.145127,217.86 535.51,217.86 L523.38,217.86 L523.38,231.27 C523.38,231.91065 522.86065,232.43 522.22,232.43 C521.57935,232.43 521.06,231.91065 521.06,231.27 L521.06,203.54 C521.080999,202.909914 521.589755,202.405544 522.22,202.39 L536.66,202.39 C537.30065,202.39 537.82,202.90935 537.82,203.55 C537.82,204.19065 537.30065,204.71 536.66,204.71 L536.67,204.7 Z" id="Shape" fill="#434345"></path>
            <path d="M566,222.88 C566,228.36971 561.54971,232.819999 556.06,232.819999 C550.57029,232.819999 546.12,228.36971 546.12,222.88 L546.12,203.54 C546.175553,202.943614 546.676032,202.487587 547.275,202.487587 C547.873968,202.487587 548.374447,202.943614 548.43,203.54 L548.43,222.88 C548.578639,226.983763 551.948546,230.233821 556.055,230.233821 C560.161454,230.233821 563.531361,226.983763 563.68,222.88 L563.68,203.54 C563.68,202.902111 564.197111,202.385 564.835,202.385 C565.472889,202.385 565.99,202.902111 565.99,203.54 L566,222.88 Z" id="Shape" fill="#434345"></path>
            <path d="M592.73,204.7 L584.64,204.7 L584.64,231.28 C584.64,231.690856 584.420811,232.070502 584.065,232.27593 C583.709189,232.481357 583.270811,232.481357 582.915,232.27593 C582.559189,232.070502 582.34,231.690856 582.34,231.28 L582.34,204.7 L574.25,204.7 C573.60935,204.7 573.09,204.18065 573.09,203.54 C573.09,202.89935 573.60935,202.38 574.25,202.38 L592.74,202.38 C593.38065,202.38 593.9,202.89935 593.9,203.54 C593.9,204.18065 593.38065,204.7 592.74,204.7 L592.73,204.7 Z" id="Shape" fill="#434345"></path>
            <path d="M620.88,222.88 C620.88,228.36971 616.42971,232.82 610.94,232.82 C605.45029,232.82 601,228.36971 601,222.88 L601,203.54 C601.055553,202.943614 601.556032,202.487587 602.155,202.487587 C602.753968,202.487587 603.254447,202.943614 603.31,203.54 L603.31,222.88 C603.458639,226.983763 606.828546,230.233821 610.935,230.233821 C615.041454,230.233821 618.411361,226.983763 618.56,222.88 L618.56,203.54 C618.56,202.902111 619.077111,202.385 619.715,202.385 C620.352889,202.385 620.87,202.902111 620.87,203.54 L620.88,222.88 Z" id="Shape" fill="#434345"></path>
            <path d="M647.14,232.43 C646.752678,232.44038 646.394218,232.226084 646.22,231.88 L639.59,221.48 C639.293649,221.499349 638.996351,221.499349 638.7,221.48 L633,221.48 L633,231.23 C633,231.867889 632.482889,232.385 631.845,232.385 C631.207111,232.385 630.69,231.867889 630.69,231.23 L630.69,203.54 C630.705785,202.911527 631.211527,202.405785 631.84,202.39 L638.69,202.39 C643.321864,202.403036 647.281009,205.728063 648.09423,210.287998 C648.907452,214.847934 646.341804,219.336595 642,220.95 L648.12,230.65 C648.267308,230.835507 648.351406,231.063275 648.36,231.3 C648.308116,231.936152 647.778257,232.426923 647.14,232.43 Z M638.7,204.7 L633,204.7 L633,219.22 L638.7,219.22 C641.293748,219.22 643.690471,217.836252 644.987345,215.59 C646.284219,213.343748 646.284219,210.576252 644.987345,208.33 C643.690471,206.083748 641.293748,204.7 638.7,204.7 Z" id="Shape" fill="#434345"></path>
            <path d="M673,232.43 L658.57,232.43 C657.939755,232.414456 657.430999,231.910086 657.41,231.28 L657.41,203.54 C657.430999,202.909914 657.939755,202.405544 658.57,202.39 L673,202.39 C673.64065,202.39 674.16,202.90935 674.16,203.55 C674.16,204.19065 673.64065,204.71 673,204.71 L659.72,204.71 L659.72,215.57 L671.86,215.57 C672.495127,215.57 673.01,216.084873 673.01,216.72 C673.01,217.355127 672.495127,217.87 671.86,217.87 L659.72,217.87 L659.72,230.12 L673,230.12 C673.64065,230.12 674.16,230.63935 674.16,231.28 C674.16,231.92065 673.64065,232.44 673,232.44 L673,232.43 Z" id="Shape" fill="#434345"></path>
        </g>
    </g>
</svg>