<?xml version="1.0" encoding="utf-8"?>
<!-- Generator: Adobe Illustrator 19.1.0, SVG Export Plug-In . SVG Version: 6.00 Build 0)  -->
<svg version="1.1" id="Ebene_1" xmlns="http://www.w3.org/2000/svg" xmlns:xlink="http://www.w3.org/1999/xlink" x="0px" y="0px"
	 viewBox="0 0 522.8 115.2" style="enable-background:new 0 0 522.8 115.2;" xml:space="preserve">
<style type="text/css">
	.st0{fill:#767676;}
</style>
<g>
	<path class="st0" d="M18.8,14.9C6.3,26.3,0,40.6,0,57.7c0,16,5.6,29.5,16.7,40.7c11.1,11.2,24.5,16.8,40.2,16.8
		c10.7,0,20.4-2.5,29.3-7.6c8.9-5.1,15.9-12.1,21-21.1c5.1-9,7.7-18.7,7.7-29c0-10.3-2.6-19.8-7.7-28.7c-5.1-8.9-12.2-15.9-21.3-21
		C76.8,2.6,67.1,0,56.8,0C42.5,0,29.8,5,18.8,14.9L18.8,14.9L18.8,14.9z M78.8,34.7c5.6,5.9,8.4,13.5,8.4,22.9
		c0,9.4-2.9,17.1-8.6,23.1c-5.7,6-12.9,9-21.5,9c-8.6,0-15.7-3-21.3-8.9c-5.6-5.9-8.4-13.6-8.4-23.2c0-9.3,2.8-16.9,8.5-22.8
		c5.7-5.9,12.8-8.9,21.3-8.9C66,25.9,73.1,28.8,78.8,34.7L78.8,34.7z M150.8,14.9C138.3,26.3,132,40.6,132,57.7
		c0,16,5.6,29.5,16.7,40.7c11.1,11.2,24.5,16.8,40.2,16.8c10.7,0,20.4-2.5,29.3-7.6c8.9-5.1,15.9-12.1,21-21.1
		c5.1-9,7.7-18.7,7.7-29c0-10.3-2.6-19.8-7.7-28.7c-5.1-8.9-12.2-15.9-21.3-21C208.8,2.6,199.1,0,188.8,0
		C174.5,0,161.8,5,150.8,14.9L150.8,14.9L150.8,14.9z M210.7,34.7c5.6,5.9,8.4,13.5,8.4,22.9c0,9.4-2.9,17.1-8.6,23.1
		c-5.7,6-12.9,9-21.5,9c-8.6,0-15.7-3-21.3-8.9c-5.6-5.9-8.4-13.6-8.4-23.2c0-9.3,2.8-16.9,8.5-22.8c5.7-5.9,12.8-8.9,21.3-8.9
		C198,25.9,205.1,28.8,210.7,34.7L210.7,34.7z M320.4,4.7c-6.3-3.1-13-4.7-20.1-4.7c-10.4,0-18.9,3.1-25.6,9.2
		c-6.7,6.1-10,13.5-10,22.2c0,13.4,8.9,24.6,26.6,33.5l9.3,4.6c8,4,12,8.2,12,12.4c0,2.3-1.1,4.3-3.3,6c-2.2,1.7-5.1,2.6-8.8,2.6
		c-3.4,0-7.2-1.2-11.5-3.5c-4.3-2.3-8.1-5.4-11.3-9.1l-16.9,18.4c9.5,12.5,22.3,18.7,38.3,18.7c12,0,21.6-3.3,28.7-9.8
		c7.1-6.5,10.7-14.6,10.7-24.4c0-7.3-2-13.7-5.9-19.1c-4-5.4-11.2-10.8-21.8-16l-10.1-5c-4.4-2.1-7.1-3.8-8.2-5.1
		c-1.1-1.2-1.7-2.6-1.7-4.1c0-1.9,0.9-3.6,2.6-4.9c1.7-1.3,4.2-2,7.2-2c5.6,0,11.9,3.4,18.8,10.3l17-17
		C332,12.3,326.7,7.8,320.4,4.7L320.4,4.7z M469.8,60.3c0-18.1-5.4-32.7-16.2-43.7C442.8,5.5,428.8,0,411.5,0
		c-16.2,0-29.7,5.5-40.5,16.6c-10.8,11-16.2,24.9-16.2,41.6c0,16.3,5.4,29.9,16.2,40.7c10.8,10.8,24.8,16.3,42,16.3
		c11.1,0,20.6-2,28.7-5.9c8.1-3.9,15-10,20.7-18.2l-23.2-10.9C432,87.4,423.1,91,412.9,91c-8.6,0-15.7-2.3-21.2-6.9
		c-5.5-4.6-8.9-10.8-10.2-18.6h88.3L469.8,60.3L469.8,60.3z M382.7,43.9c3.1-6.8,6.5-11.5,10.1-14.2c5.8-4.3,12.5-6.4,20.2-6.4
		c7.1,0,13.3,1.9,18.6,5.7c5.3,3.8,8.9,8.8,10.7,14.9H382.7L382.7,43.9z M495.8,88.2c-3.1,3.1-4.6,6.8-4.6,11.1
		c0,4.4,1.5,8.1,4.6,11.2c3.1,3.1,6.8,4.6,11.2,4.6c4.4,0,8.1-1.5,11.2-4.6c3.1-3.1,4.6-6.8,4.6-11.2c0-4.4-1.5-8.1-4.6-11.1
		c-3.1-3.1-6.8-4.6-11.2-4.6C502.6,83.7,498.9,85.2,495.8,88.2L495.8,88.2z"/>
</g>
</svg>
